<?xml version="1.0" encoding="UTF-8" standalone="yes"?>
<!DOCTYPE svg PUBLIC "-//W3C//DTD SVG 1.1//EN" "http://www.w3.org/Graphics/SVG/1.1/DTD/svg11.dtd">

<svg width="48" height="48" viewBox="0 0 48 48" xmlns="http://www.w3.org/2000/svg" xmlns:xlink="http://www.w3.org/1999/xlink" version="1.1" baseProfile="full">
    <g transform="scale(0.096000,-0.096000) translate(0,-500)">
        <path d="M 26.568181 1.000000 Q 16.340908 1.000000 8.670454 8.670454 Q 1.000000 16.340909 1.000000 26.568181 L 1.000000 299.295455 Q 1.000000 309.522729 8.670454 317.193182 Q 16.340909 324.863636 26.568181 324.863636 L 174.863633 324.863636 L 273.727272 225.999997 L 273.727272 26.568182 Q 273.727272 16.340909 266.056818 8.670455 Q 258.386364 1.000001 248.159092 1.000001 M 162.079542 214.920458 L 248.159091 214.920458 L 162.079542 299.295455 Z" transform="scale(1.000000,1.000000) translate(140.881886,64.860416)" opacity="1.000000"></path>
        <path d="M 26.568181 290.346580 Q 16.340908 290.346580 8.670455 282.676126 Q 1.000000 275.005678 1.000000 264.778399 L 1.000000 1.000000 L 26.568181 1.000000 L 26.568181 264.778399 L 238.784080 264.778399 L 238.784080 290.346580 Z" transform="scale(1.000000,1.000000) translate(89.745522,150.441050)" opacity="1.000000"></path>
    </g>
</svg>