<?xml version="1.0" encoding="UTF-8" standalone="yes"?>
<!DOCTYPE svg PUBLIC "-//W3C//DTD SVG 1.1//EN" "http://www.w3.org/Graphics/SVG/1.1/DTD/svg11.dtd">

<svg width="20" height="20" viewBox="0 0 20 20" xmlns="http://www.w3.org/2000/svg" xmlns:xlink="http://www.w3.org/1999/xlink" version="1.1" baseProfile="full">
    <g transform="scale(0.040000,-0.040000) translate(0,-500)">
        <path d="M 20.999999 1.000000 L 1.000000 20.999998 L 110.999995 131.000005 L 1.000005 240.999998 L 21.000003 260.999995 L 130.999998 151.000007 L 240.999997 261.000000 L 260.999995 241.000002 L 151.000001 131.000005 L 261.000000 21.000011 L 241.000001 1.000014 L 130.999998 111.000002 Z" transform="scale(1.000000,1.000000) translate(183.381270,52.946488)" fill="#ffffff" opacity="1.000000"></path>
        <path d="M 55.291700 19.489800 L 56.195600 19.620300 L 57.085900 19.837600 L 57.956000 20.142000 L 58.799100 20.533300 L 59.608400 21.011500 L 60.377200 21.576700 L 61.098700 22.228800 L 164.381200 125.511300 L 267.663600 22.228900 L 268.385100 21.576800 L 269.153900 21.011600 L 269.963200 20.533400 L 270.806300 20.142100 L 271.676400 19.837700 L 272.566700 19.620400 L 273.470500 19.489900 L 274.381100 19.446500 L 275.291700 19.489900 L 276.195600 19.620400 L 277.085900 19.837700 L 277.956000 20.142100 L 278.799100 20.533400 L 279.608400 21.011600 L 280.377100 21.576800 L 281.098600 22.228900 L 301.098600 42.228800 L 301.750800 42.950300 L 302.316000 43.719100 L 302.794200 44.528400 L 303.185500 45.371500 L 303.489900 46.241600 L 303.707200 47.131900 L 303.837700 48.035700 L 303.881100 48.946300 L 303.837700 49.856900 L 303.707200 50.760800 L 303.489900 51.651100 L 303.185500 52.521200 L 302.794200 53.364300 L 302.316000 54.173600 L 301.750800 54.942400 L 301.098700 55.663900 L 197.816300 158.946400 L 301.098700 262.228800 L 301.750800 262.950300 L 302.316000 263.719100 L 302.794200 264.528400 L 303.185500 265.371500 L 303.489900 266.241600 L 303.707200 267.131900 L 303.837700 268.035800 L 303.881200 268.946400 L 303.837700 269.856900 L 303.707200 270.760800 L 303.489900 271.651100 L 303.185500 272.521200 L 302.794200 273.364300 L 302.316000 274.173600 L 301.750800 274.942400 L 301.098700 275.663900 L 281.098700 295.663900 L 280.377200 296.316000 L 279.608400 296.881200 L 278.799100 297.359400 L 277.956000 297.750700 L 277.085900 298.055100 L 276.195600 298.272400 L 275.291700 298.402900 L 274.381200 298.446400 L 273.470600 298.402900 L 272.566700 298.272400 L 271.676400 298.055100 L 270.806300 297.750700 L 269.963200 297.359400 L 269.153900 296.881200 L 268.385100 296.316000 L 267.663600 295.663900 L 164.381200 192.381500 L 61.098700 295.663900 L 60.377200 296.316000 L 59.608400 296.881200 L 58.799100 297.359400 L 57.956000 297.750700 L 57.085900 298.055100 L 56.195600 298.272400 L 55.291700 298.402900 L 54.381200 298.446400 L 53.470600 298.402900 L 52.566700 298.272400 L 51.676400 298.055100 L 50.806300 297.750700 L 49.963200 297.359400 L 49.153900 296.881200 L 48.385100 296.316000 L 47.663600 295.663900 L 27.663600 275.663900 L 27.011500 274.942400 L 26.446300 274.173600 L 25.968100 273.364300 L 25.576800 272.521200 L 25.272400 271.651100 L 25.055100 270.760800 L 24.924600 269.856900 L 24.881200 268.946400 L 24.924600 268.035800 L 25.055100 267.131900 L 25.272400 266.241600 L 25.576800 265.371500 L 25.968100 264.528400 L 26.446300 263.719100 L 27.011500 262.950300 L 27.663600 262.228800 L 130.946100 158.946400 L 27.663600 55.663900 L 27.011500 54.942400 L 26.446300 54.173600 L 25.968100 53.364300 L 25.576800 52.521200 L 25.272400 51.651100 L 25.055100 50.760800 L 24.924600 49.856900 L 24.881200 48.946400 L 24.924600 48.035800 L 25.055100 47.131900 L 25.272400 46.241600 L 25.576800 45.371500 L 25.968100 44.528400 L 26.446300 43.719100 L 27.011500 42.950300 L 27.663600 42.228800 L 47.663600 22.228800 L 48.385100 21.576700 L 49.153900 21.011500 L 49.963200 20.533300 L 50.806300 20.142000 L 51.676400 19.837600 L 52.566700 19.620300 L 53.470600 19.489800 L 54.381200 19.446300 Z M 34.381200 48.946400 L 144.381200 158.946400 L 34.381200 268.946400 L 54.381200 288.946400 L 164.381200 178.946400 L 274.381200 288.946400 L 294.381200 268.946400 L 184.381200 158.946400 L 294.381200 48.946400 L 274.381200 28.946500 L 164.381200 138.946400 L 54.381200 28.946400 Z" transform="scale(1.000000,1.000000) translate(150.000000,25.000000)" fill="#ffffff" opacity="1.000000"></path>
    </g>
</svg>