<?xml version="1.0" encoding="UTF-8" standalone="yes"?>
<!DOCTYPE svg PUBLIC "-//W3C//DTD SVG 1.1//EN" "http://www.w3.org/Graphics/SVG/1.1/DTD/svg11.dtd">

<svg width="20" height="20" viewBox="0 0 20 20" xmlns="http://www.w3.org/2000/svg" xmlns:xlink="http://www.w3.org/1999/xlink" version="1.1" baseProfile="full">
    <g transform="scale(0.040000,-0.040000) translate(0,-500)">
        <path d="M 109.440880 1.000000 L 1.000000 109.440880 L 21.816776 130.257662 L 109.440880 42.633558 L 295.339527 228.532212 L 316.156310 207.715430 Z" transform="scale(1.000000,1.000000) translate(149.797754,61.655396)" opacity="1.000000"></path>
        <path d="M 118.575068 1.038155 L 119.368088 1.152620 L 120.149336 1.343311 L 120.912695 1.610311 L 121.652420 1.953622 L 122.362496 2.373242 L 123.037012 2.869171 L 123.670095 3.441326 L 330.385563 210.156815 L 330.957733 210.789898 L 331.453652 211.464401 L 331.873271 212.174478 L 332.216588 212.914202 L 332.483604 213.677574 L 332.674293 214.458822 L 332.788758 215.251842 L 332.826896 216.050813 L 332.788758 216.849707 L 332.674293 217.642727 L 332.483604 218.423975 L 332.216588 219.187347 L 331.873271 219.927071 L 331.453652 220.637148 L 330.957733 221.311651 L 330.385563 221.944734 L 309.568781 242.761541 L 308.935698 243.333685 L 308.261169 243.829605 L 307.551119 244.249249 L 306.811368 244.592541 L 306.048022 244.859557 L 305.266774 245.050246 L 304.473754 245.164711 L 303.674860 245.202849 L 302.875864 245.164711 L 302.082869 245.050246 L 301.301596 244.859557 L 300.538250 244.592541 L 299.798525 244.249249 L 299.088449 243.829605 L 298.413945 243.333685 L 297.780837 242.761541 L 117.776174 62.756853 L 36.046055 144.486966 L 35.412969 145.059123 L 34.738450 145.555055 L 34.028380 145.974674 L 33.288645 146.317991 L 32.525296 146.584982 L 31.744045 146.775683 L 30.951028 146.890148 L 30.152128 146.928299 L 29.353141 146.890148 L 28.560124 146.775683 L 27.778873 146.584982 L 27.015524 146.317991 L 26.275789 145.974674 L 25.565719 145.555055 L 24.891200 145.059123 L 24.258114 144.486966 L 3.441326 123.670184 L 2.869171 123.037101 L 2.373241 122.362572 L 1.953621 121.652509 L 1.610311 120.912771 L 1.343310 120.149425 L 1.152619 119.368177 L 1.038155 118.575157 L 1.000000 117.776250 L 1.038155 116.977267 L 1.152619 116.184247 L 1.343310 115.402999 L 1.610311 114.639653 L 1.953621 113.899915 L 2.373241 113.189851 L 2.869171 112.515323 L 3.441326 111.882240 L 111.882164 3.441326 L 112.515246 2.869171 L 113.189763 2.373242 L 113.899826 1.953622 L 114.639564 1.610311 L 115.402923 1.343311 L 116.184171 1.152620 L 116.977191 1.038155 L 117.776084 1.000000 Z M 9.335338 117.776250 L 30.152128 138.593045 L 117.776174 50.968915 L 303.674860 236.867595 L 324.491642 216.050813 L 117.776174 9.335338 Z" transform="scale(1.000000,1.000000) translate(141.462402,53.319980)" fill="#000000" opacity="1.000000"></path>
    </g>
</svg>